<svg width="24" height="24" viewBox="0 0 24 24" fill="none" xmlns="http://www.w3.org/2000/svg">
<path d="M2 5C2 3.34315 3.34315 2 5 2H19C20.6569 2 22 3.34315 22 5V19C22 20.6569 20.6569 22 19 22H15.001H14.999H5C3.34315 22 2 20.6569 2 19V16.0002V15.9998V5ZM19 20C19.1821 20 19.3529 19.9513 19.4999 19.8663C19.4259 19.8235 19.3562 19.7704 19.2929 19.7071L15.5 15.9142L13.4142 18L15.4142 20H19ZM20 5C20 4.44772 19.5523 4 19 4H5C4.44772 4 4 4.44772 4 5V13.5858L5.79289 11.7929C6.18342 11.4024 6.81658 11.4024 7.20711 11.7929L12 16.5858L14.7929 13.7929C15.1834 13.4024 15.8166 13.4024 16.2071 13.7929L20 17.5858V5ZM4 19C4 19.5523 4.44772 20 5 20H12.5858L11.2929 18.7071L6.5 13.9142L4 16.4142V19ZM14 9C14 8.44772 14.4477 8 15 8C15.5523 8 16 8.44772 16 9C16 9.55228 15.5523 10 15 10C14.4477 10 14 9.55228 14 9ZM15 6C13.3431 6 12 7.34315 12 9C12 10.6569 13.3431 12 15 12C16.6569 12 18 10.6569 18 9C18 7.34315 16.6569 6 15 6Z" fill="#3249C5"/>
</svg>
