<svg width="206" height="72" viewBox="0 0 206 72" fill="none" xmlns="http://www.w3.org/2000/svg">
<path fill-rule="evenodd" clip-rule="evenodd" d="M92.9343 31.0981V22.8052H89V20.0666H100.456V22.8052H96.5214V31.0981H92.9343ZM103.696 26.8938C103.696 27.3566 103.734 27.7038 103.811 27.8966C103.889 28.1281 103.927 28.2438 104.004 28.3595C104.004 28.3981 104.043 28.4366 104.12 28.4752C104.159 28.5524 104.274 28.5909 104.39 28.6681C104.506 28.7452 104.621 28.7838 104.814 28.8224C104.969 28.8609 105.161 28.8995 105.431 28.8995C105.856 28.8995 106.164 28.8224 106.357 28.7066C106.55 28.5524 106.704 28.4367 106.781 28.3595C106.897 28.1667 106.974 27.9738 107.051 27.7038C107.09 27.4724 107.129 27.1638 107.129 26.8938C107.129 26.4695 107.09 26.1224 107.051 25.8909C107.013 25.6595 106.936 25.5052 106.82 25.3895C106.743 25.2738 106.589 25.1581 106.396 25.0424C106.203 24.9266 105.894 24.8495 105.431 24.8495C104.969 24.8495 104.699 24.9266 104.467 25.0424C104.274 25.1581 104.12 25.2738 104.043 25.3895C104.004 25.4666 103.927 25.6209 103.85 25.8138C103.734 26.0452 103.696 26.4309 103.696 26.8938ZM105.393 22.6509C105.701 22.6509 106.049 22.6509 106.396 22.6895C106.743 22.6895 107.09 22.7281 107.399 22.8052C107.707 22.8438 108.016 22.9595 108.324 23.0752C108.594 23.1909 108.864 23.3452 109.096 23.5381C109.366 23.7695 109.559 24.0395 109.713 24.3481C109.867 24.6566 109.983 24.9652 110.06 25.2738C110.137 25.5824 110.176 25.8909 110.176 26.1995C110.176 26.5081 110.214 26.7395 110.214 26.9709C110.214 27.1638 110.214 27.4338 110.176 27.7424C110.176 28.0509 110.099 28.3595 110.06 28.6681C109.983 28.9766 109.867 29.2852 109.713 29.5938C109.559 29.9024 109.366 30.1724 109.096 30.4038C108.864 30.5966 108.594 30.7509 108.324 30.8667C108.054 30.9824 107.746 31.0595 107.399 31.1366C107.09 31.1752 106.743 31.2138 106.396 31.2524C106.049 31.2524 105.701 31.2909 105.393 31.2909C105.046 31.2909 104.737 31.2909 104.39 31.2524C104.043 31.2524 103.734 31.2138 103.387 31.1366C103.079 31.0981 102.77 30.9824 102.461 30.8667C102.191 30.7509 101.921 30.5966 101.69 30.4038C101.42 30.1724 101.227 29.9024 101.073 29.5938C100.919 29.2852 100.803 28.9766 100.726 28.6681C100.649 28.3595 100.61 28.0509 100.61 27.7424C100.61 27.4338 100.571 27.2024 100.571 26.9709C100.571 26.7781 100.571 26.5081 100.61 26.1995C100.61 25.8909 100.687 25.5824 100.726 25.2738C100.803 24.9652 100.919 24.6566 101.073 24.3481C101.227 24.0395 101.42 23.7695 101.69 23.5381C101.921 23.3452 102.191 23.1909 102.461 23.0752C102.731 22.9595 103.04 22.8824 103.387 22.8052C103.696 22.7666 104.043 22.7281 104.39 22.6895C104.699 22.6509 105.046 22.6509 105.393 22.6509ZM115.383 28.8609C115.73 28.8609 115.961 28.7838 116.154 28.6295C116.347 28.4752 116.463 28.3595 116.54 28.2052C116.617 28.0509 116.694 27.8581 116.694 27.6266C116.733 27.3952 116.733 27.1638 116.733 26.8938C116.733 26.6624 116.733 26.4309 116.694 26.2381C116.656 26.0452 116.656 25.8524 116.579 25.6981C116.501 25.5438 116.424 25.3895 116.309 25.3124C116.193 25.2352 116.077 25.1581 116 25.0809C115.884 25.0424 115.769 25.0038 115.691 25.0038C115.576 25.0038 115.537 25.0038 115.46 25.0038H114.38C114.341 25.0038 114.303 25.0038 114.264 25.0424C114.226 25.0809 114.149 25.0809 114.149 25.1195C114.071 25.1966 114.033 25.2738 114.033 25.3895V28.8609H115.383ZM114.033 33.7595H110.947V24.3095C110.947 24.0781 110.986 23.8466 111.063 23.6152C111.14 23.3838 111.294 23.1909 111.526 22.9981C111.719 22.8438 111.911 22.7666 112.104 22.7281C112.297 22.6895 112.49 22.6895 112.721 22.6895H116.579C116.733 22.6895 116.887 22.6895 117.08 22.7281C117.273 22.7281 117.466 22.7666 117.697 22.8438C117.929 22.8824 118.16 22.9981 118.353 23.1138C118.584 23.2295 118.777 23.3838 118.97 23.5766C119.163 23.8081 119.356 24.0395 119.471 24.3095C119.587 24.5795 119.664 24.8495 119.741 25.1195C119.78 25.3895 119.819 25.6595 119.857 25.9295C119.857 26.1995 119.896 26.4309 119.896 26.6238C119.896 26.8167 119.896 27.0481 119.896 27.3181C119.896 27.5881 119.857 27.8966 119.819 28.2052C119.78 28.5138 119.703 28.8224 119.626 29.1309C119.549 29.4395 119.394 29.7095 119.24 29.9409C119.047 30.2109 118.854 30.4424 118.584 30.5966C118.353 30.7509 118.083 30.8666 117.813 30.9438C117.543 31.0209 117.311 31.0595 117.041 31.0981C116.771 31.1366 116.54 31.1366 116.347 31.1366H114.071V33.7595H114.033ZM123.714 27.8195C123.714 27.9738 123.753 28.1281 123.83 28.2824C123.907 28.4366 124.023 28.5909 124.139 28.7066C124.254 28.7838 124.409 28.8609 124.601 28.8995C124.794 28.9381 124.949 28.9381 125.103 28.9381C125.219 28.9381 125.373 28.9381 125.566 28.8995C125.759 28.8609 125.951 28.8224 126.067 28.7452C126.183 28.6681 126.299 28.5909 126.376 28.4366C126.453 28.3209 126.491 28.2052 126.53 28.0509C126.569 27.9352 126.569 27.7809 126.569 27.6652C126.569 27.5495 126.569 27.3952 126.569 27.2795C126.569 27.0481 126.569 26.8166 126.53 26.5852C126.53 26.3924 126.453 26.1995 126.376 26.0452C126.337 25.9681 126.221 25.8138 126.067 25.6595C125.913 25.5052 125.681 25.4281 125.373 25.4281H123.676V27.8195H123.714ZM125.643 22.1495C125.45 22.1495 125.18 22.1495 124.91 22.1881C124.64 22.2266 124.37 22.3038 124.177 22.4966C124.1 22.5738 123.984 22.6895 123.869 22.8824C123.753 23.0366 123.714 23.2681 123.753 23.5381H126.414C126.607 23.5381 126.839 23.5381 127.109 23.5766C127.379 23.5766 127.61 23.6538 127.88 23.6924C128.15 23.7695 128.381 23.8852 128.651 24.0395C128.883 24.1938 129.114 24.3866 129.269 24.6566C129.539 25.0038 129.693 25.4281 129.731 25.8524C129.809 26.3152 129.809 26.7395 129.809 27.2024C129.809 27.7038 129.77 28.2052 129.731 28.7066C129.654 29.2081 129.5 29.6324 129.23 30.0566C129.037 30.3266 128.806 30.5581 128.536 30.7124C128.266 30.8666 127.957 30.9824 127.649 31.0595C127.301 31.1367 126.954 31.1752 126.53 31.1752C126.106 31.1752 125.681 31.2138 125.18 31.2138C124.756 31.2138 124.331 31.2138 123.907 31.1752C123.483 31.1752 123.136 31.0981 122.75 31.0209C122.403 30.9438 122.094 30.8281 121.786 30.6352C121.516 30.4809 121.284 30.2495 121.091 29.9409C120.899 29.5938 120.744 29.2081 120.706 28.8224C120.667 28.4366 120.667 28.0509 120.667 27.6266V23.3452C120.667 22.9209 120.706 22.5352 120.783 22.1881C120.86 21.8409 121.014 21.5709 121.169 21.3395C121.323 21.1081 121.516 20.8766 121.747 20.7224C121.979 20.5681 122.21 20.4138 122.441 20.3366C122.673 20.2209 122.943 20.1438 123.174 20.1052C123.406 20.0666 123.637 20.0281 123.869 20.0281H129.307V22.1495H125.643ZM135.71 25.8138C135.941 25.8138 136.057 25.7752 136.134 25.6595C136.173 25.5438 136.211 25.4666 136.211 25.3895C136.211 25.2738 136.173 25.1581 136.096 25.0424C136.019 24.9266 135.864 24.8495 135.633 24.8109C135.517 24.7724 135.363 24.7724 135.209 24.7724C135.054 24.7724 134.9 24.7724 134.823 24.7724C134.63 24.7724 134.437 24.7724 134.244 24.8109C134.051 24.8109 133.859 24.8495 133.743 24.9266C133.589 25.0038 133.473 25.1195 133.434 25.3124C133.396 25.4666 133.396 25.6595 133.396 25.8524H135.71V25.8138ZM133.704 31.0981C133.396 31.0981 133.087 31.0981 132.817 31.0981C132.547 31.0981 132.277 31.0595 132.007 30.9824C131.737 30.9052 131.506 30.7895 131.313 30.6738C131.12 30.5195 130.927 30.3266 130.734 30.0566C130.541 29.7481 130.426 29.3624 130.387 28.8995C130.349 28.4366 130.31 27.8195 130.31 27.0481C130.31 26.6624 130.31 26.3152 130.31 25.9681C130.31 25.6209 130.31 25.3124 130.349 25.0038C130.387 24.6952 130.464 24.4252 130.541 24.1938C130.619 23.9238 130.773 23.7309 130.966 23.5381C131.159 23.3452 131.39 23.1909 131.699 23.0752C131.969 22.9595 132.316 22.8824 132.663 22.8438C133.01 22.8052 133.357 22.7666 133.743 22.7666C134.129 22.7666 134.514 22.7666 134.9 22.7666C135.749 22.7666 136.443 22.8052 137.021 22.8438C137.561 22.8824 138.024 23.0752 138.371 23.3452C138.564 23.4995 138.719 23.6924 138.834 23.9238C138.95 24.1552 139.066 24.3866 139.104 24.6566C139.181 24.9266 139.22 25.1581 139.22 25.4281C139.22 25.6981 139.259 25.9295 139.259 26.1609C139.259 26.4309 139.22 26.7009 139.181 26.9709C139.143 27.2409 138.989 27.4724 138.757 27.6652C138.603 27.7809 138.487 27.8581 138.371 27.8581C138.256 27.8966 138.101 27.8966 137.947 27.8966H133.396C133.396 28.0124 133.396 28.1281 133.434 28.2438C133.473 28.3595 133.511 28.4752 133.55 28.5524C133.704 28.7452 133.897 28.8995 134.129 28.8995C134.399 28.9381 134.669 28.9381 134.939 28.9381H138.989V31.1752H133.704V31.0981ZM145.237 25.8138C145.469 25.8138 145.584 25.7752 145.661 25.6595C145.7 25.5438 145.739 25.4666 145.739 25.3895C145.739 25.2738 145.7 25.1581 145.623 25.0424C145.546 24.9266 145.391 24.8495 145.16 24.8109C145.044 24.7724 144.89 24.7724 144.736 24.7724C144.581 24.7724 144.427 24.7724 144.35 24.7724C144.157 24.7724 143.964 24.7724 143.771 24.8109C143.579 24.8109 143.386 24.8495 143.27 24.9266C143.116 25.0038 143 25.1195 142.961 25.3124C142.923 25.4666 142.923 25.6595 142.923 25.8524H145.237V25.8138ZM143.231 31.0981C142.923 31.0981 142.614 31.0981 142.344 31.0981C142.074 31.0981 141.804 31.0595 141.534 30.9824C141.264 30.9052 141.033 30.7895 140.84 30.6738C140.647 30.5195 140.454 30.3266 140.261 30.0566C140.069 29.7481 139.953 29.3624 139.914 28.8995C139.876 28.4366 139.837 27.8195 139.837 27.0481C139.837 26.6624 139.837 26.3152 139.837 25.9681C139.837 25.6209 139.837 25.3124 139.876 25.0038C139.914 24.6952 139.991 24.4252 140.069 24.1938C140.146 23.9238 140.3 23.7309 140.493 23.5381C140.686 23.3452 140.917 23.1909 141.226 23.0752C141.496 22.9595 141.843 22.8824 142.19 22.8438C142.537 22.8052 142.884 22.7666 143.27 22.7666C143.656 22.7666 144.041 22.7666 144.427 22.7666C145.276 22.7666 145.97 22.8052 146.549 22.8438C147.089 22.8824 147.551 23.0752 147.899 23.3452C148.091 23.4995 148.246 23.6924 148.361 23.9238C148.477 24.1552 148.593 24.3866 148.631 24.6566C148.709 24.9266 148.747 25.1581 148.747 25.4281C148.747 25.6981 148.786 25.9295 148.786 26.1609C148.786 26.4309 148.747 26.7009 148.709 26.9709C148.67 27.2409 148.516 27.4724 148.284 27.6652C148.13 27.7809 148.014 27.8581 147.899 27.8581C147.783 27.8966 147.629 27.8966 147.474 27.8966H142.923C142.923 28.0124 142.923 28.1281 142.961 28.2438C143 28.3595 143.039 28.4752 143.077 28.5524C143.231 28.7452 143.424 28.8995 143.656 28.8995C143.926 28.9381 144.196 28.9381 144.466 28.9381H148.516V31.1752H143.231V31.0981ZM152.681 28.3595C152.681 28.3981 152.681 28.4366 152.681 28.5138C152.681 28.5909 152.72 28.6681 152.759 28.7066C152.797 28.7838 152.874 28.8224 152.951 28.8224C153.029 28.8224 153.106 28.8224 153.144 28.8224H154.61C154.726 28.8224 154.841 28.8224 154.957 28.8224C155.073 28.8224 155.15 28.7838 155.266 28.6681C155.343 28.5909 155.381 28.5138 155.42 28.4752C155.42 28.4366 155.42 28.3595 155.42 28.3209C155.42 28.2438 155.42 28.1666 155.381 28.0895C155.381 28.0124 155.304 27.9738 155.227 27.8966C155.111 27.8195 154.996 27.7809 154.88 27.7809C154.764 27.7809 154.687 27.7809 154.571 27.7809H152.643V28.3595H152.681ZM154.533 25.8524C154.803 25.8524 154.957 25.8524 155.073 25.8138C155.15 25.7752 155.227 25.7752 155.227 25.7366C155.304 25.6981 155.343 25.6209 155.381 25.5438C155.381 25.4666 155.42 25.3895 155.42 25.3124C155.42 25.2352 155.42 25.1966 155.381 25.1581C155.343 25.1195 155.304 25.0424 155.227 25.0038C155.15 24.9652 155.034 24.9266 154.919 24.9266C154.803 24.9266 154.687 24.9266 154.61 24.9266H153.26C153.221 24.9266 153.144 24.9266 153.067 24.9266C152.99 24.9266 152.913 24.9652 152.836 25.0038C152.797 25.0424 152.72 25.1195 152.681 25.1581C152.643 25.2352 152.604 25.3124 152.604 25.4281V25.8909H154.533V25.8524ZM149.596 24.4252C149.596 24.1552 149.634 23.8852 149.75 23.6538C149.827 23.4224 149.981 23.2295 150.136 23.1138C150.329 22.9595 150.599 22.8438 150.907 22.8052C151.216 22.7666 151.486 22.7666 151.756 22.7666H155.729C155.921 22.7666 156.114 22.7666 156.346 22.7666C156.539 22.7666 156.77 22.8052 156.963 22.8052C157.156 22.8438 157.349 22.8824 157.541 22.9595C157.734 23.0367 157.889 23.1524 158.043 23.3066C158.159 23.4224 158.236 23.5381 158.313 23.6924C158.39 23.8466 158.429 24.0009 158.467 24.1167C158.506 24.2709 158.506 24.3866 158.544 24.5409C158.544 24.6566 158.544 24.7724 158.544 24.8881C158.544 25.1195 158.506 25.3509 158.467 25.6209C158.429 25.8909 158.274 26.1224 158.081 26.3152C157.927 26.4695 157.734 26.5467 157.541 26.6238C157.31 26.7009 157.117 26.7395 156.886 26.7781V26.8166C157.079 26.8552 157.31 26.8938 157.541 26.9709C157.773 27.0481 157.966 27.1638 158.12 27.3181C158.313 27.5109 158.467 27.7424 158.506 28.0124C158.544 28.2824 158.583 28.5138 158.583 28.7838C158.583 28.8995 158.583 29.0152 158.583 29.1695C158.583 29.3238 158.544 29.4781 158.506 29.6324C158.467 29.7866 158.429 29.9795 158.351 30.1338C158.274 30.2881 158.159 30.4424 158.043 30.5581C157.734 30.8281 157.387 30.9824 157.001 31.0209C156.616 31.0595 156.191 31.0981 155.806 31.0981H151.717C151.447 31.0981 151.177 31.0981 150.869 31.0595C150.599 31.0209 150.329 30.9438 150.136 30.7509C150.059 30.6738 149.943 30.5581 149.827 30.3652C149.711 30.1724 149.673 29.9024 149.673 29.5552V24.4252H149.596ZM162.401 31.0981C162.209 31.0981 162.016 31.0981 161.823 31.0595C161.591 31.0209 161.399 30.9824 161.167 30.9438C160.936 30.8666 160.704 30.7895 160.473 30.6352C160.241 30.5195 160.049 30.3266 159.856 30.0952C159.547 29.7095 159.316 29.2852 159.239 28.7452C159.161 28.2438 159.123 27.6652 159.123 27.0095C159.123 26.7009 159.123 26.3924 159.161 26.0838C159.161 25.7752 159.2 25.4666 159.277 25.1966C159.354 24.8881 159.431 24.6181 159.547 24.3481C159.663 24.0781 159.856 23.8466 160.049 23.6152C160.357 23.2681 160.743 23.0366 161.167 22.9209C161.591 22.8052 162.054 22.7281 162.556 22.7281H167.03V24.8495H163.983C163.713 24.8495 163.481 24.8881 163.327 24.9266C163.134 24.9652 162.98 25.0424 162.864 25.1581C162.749 25.2352 162.633 25.3509 162.556 25.4667C162.479 25.5824 162.44 25.6981 162.401 25.8524C162.363 26.0067 162.324 26.1995 162.286 26.3538C162.247 26.5466 162.247 26.7395 162.247 26.9324C162.247 27.4338 162.286 27.7424 162.324 27.9738C162.401 28.1666 162.44 28.3209 162.479 28.3981C162.556 28.5524 162.71 28.6681 162.826 28.7452C162.98 28.8224 163.096 28.8609 163.25 28.8995C163.404 28.9381 163.559 28.9381 163.713 28.9381C163.867 28.9381 164.021 28.9381 164.137 28.9381H167.184V31.0595H162.401V31.0981ZM174.204 31.0981L171.774 27.7424C171.697 27.5881 171.581 27.4724 171.504 27.3181C171.427 27.1638 171.389 27.0095 171.389 26.8166C171.389 26.6624 171.427 26.5081 171.504 26.3152C171.581 26.1224 171.736 25.9295 171.89 25.6981L173.934 22.7281H177.329L174.86 25.8909C174.551 26.2766 174.397 26.5852 174.397 26.7395C174.397 26.8552 174.436 27.0095 174.513 27.1252C174.59 27.2409 174.667 27.3566 174.744 27.4724L177.676 31.0595H174.204V31.0981ZM167.956 31.0981V22.7666H171.041V31.0981H167.956ZM184.233 31.0981H187.319V24.3095C187.319 24.1938 187.319 24.0395 187.28 23.8852C187.241 23.6924 187.203 23.4995 187.087 23.3452C186.971 23.1524 186.779 22.9981 186.547 22.8824C186.316 22.7281 185.969 22.6895 185.506 22.6895C185.274 22.6895 185.081 22.6895 184.927 22.7281C184.773 22.7666 184.657 22.8052 184.541 22.8824C184.426 22.9209 184.349 22.9981 184.271 23.0752C184.194 23.1524 184.156 23.2295 184.079 23.3066L181.07 27.0866C181.031 27.1252 180.993 27.1638 180.954 27.2409C180.916 27.2795 180.839 27.3181 180.8 27.3181C180.761 27.3181 180.684 27.2795 180.684 27.2409C180.684 27.2024 180.646 27.1252 180.646 27.0866L180.8 22.7666H177.714V29.6324C177.714 30.0181 177.791 30.2881 177.907 30.4809C178.023 30.6738 178.177 30.8281 178.37 30.9438C178.563 31.0595 178.756 31.1366 178.949 31.1366C179.141 31.1752 179.334 31.1752 179.489 31.1752C179.643 31.1752 179.797 31.1752 179.951 31.1366C180.106 31.1366 180.221 31.0981 180.337 31.0595C180.453 31.0209 180.569 30.9438 180.684 30.8281C180.8 30.7124 180.916 30.5966 181.031 30.4424L184.001 26.7395C184.04 26.6624 184.117 26.6238 184.156 26.5852C184.194 26.5466 184.233 26.5081 184.31 26.5081C184.387 26.5081 184.426 26.5466 184.426 26.5852C184.426 26.6238 184.426 26.7009 184.426 26.7395L184.233 31.0981ZM193.451 25.8138C193.683 25.8138 193.799 25.7752 193.876 25.6595C193.914 25.5438 193.953 25.4666 193.953 25.3895C193.953 25.2738 193.914 25.1581 193.837 25.0424C193.76 24.9266 193.606 24.8495 193.374 24.8109C193.259 24.7724 193.104 24.7724 192.95 24.7724C192.796 24.7724 192.641 24.7724 192.564 24.7724C192.371 24.7724 192.179 24.7724 191.986 24.8109C191.793 24.8109 191.6 24.8495 191.484 24.9266C191.33 25.0038 191.214 25.1195 191.176 25.3124C191.137 25.4666 191.137 25.6595 191.137 25.8524H193.451V25.8138ZM191.446 31.0981C191.137 31.0981 190.829 31.0981 190.559 31.0981C190.289 31.0981 190.019 31.0595 189.749 30.9824C189.479 30.9052 189.247 30.7895 189.054 30.6738C188.861 30.5195 188.669 30.3266 188.476 30.0566C188.283 29.7481 188.167 29.3624 188.129 28.8995C188.09 28.4366 188.051 27.8195 188.051 27.0481C188.051 26.6624 188.051 26.3152 188.051 25.9681C188.051 25.6209 188.051 25.3124 188.09 25.0038C188.129 24.6952 188.206 24.4252 188.283 24.1938C188.36 23.9238 188.514 23.7309 188.707 23.5381C188.9 23.3452 189.131 23.1909 189.44 23.0752C189.71 22.9595 190.057 22.8824 190.404 22.8438C190.751 22.8052 191.099 22.7666 191.484 22.7666C191.87 22.7666 192.256 22.7666 192.641 22.7666C193.49 22.7666 194.184 22.8052 194.763 22.8438C195.303 22.8824 195.766 23.0752 196.113 23.3452C196.306 23.4995 196.46 23.6924 196.576 23.9238C196.691 24.1552 196.807 24.3866 196.846 24.6566C196.923 24.9266 196.961 25.1581 196.961 25.4281C196.961 25.6981 197 25.9295 197 26.1609C197 26.4309 196.961 26.7009 196.923 26.9709C196.884 27.2409 196.73 27.4724 196.499 27.6652C196.344 27.7809 196.229 27.8581 196.113 27.8581C195.997 27.8966 195.843 27.8966 195.689 27.8966H191.137C191.137 28.0124 191.137 28.1281 191.176 28.2438C191.214 28.3595 191.253 28.4752 191.291 28.5524C191.446 28.7452 191.639 28.8995 191.87 28.8995C192.14 28.9381 192.41 28.9381 192.68 28.9381H196.73V31.1752H191.446V31.0981ZM114.264 46.5266C114.187 46.7195 114.11 46.8352 114.033 46.9509C113.917 47.0666 113.801 47.1438 113.686 47.2209C113.57 47.2595 113.416 47.2981 113.261 47.3366C113.107 47.3366 112.953 47.3752 112.799 47.3752C112.644 47.3752 112.49 47.3752 112.336 47.3366C112.181 47.3366 112.066 47.2981 111.911 47.2209C111.796 47.1824 111.68 47.0666 111.564 46.9509C111.449 46.8352 111.371 46.6809 111.333 46.5266L110.021 42.7852C109.983 42.6309 109.906 42.5538 109.867 42.5538C109.79 42.5538 109.751 42.6309 109.751 42.7466L109.906 47.2209H106.82V40.3552C106.82 40.0852 106.897 39.8538 107.013 39.6609C107.129 39.4681 107.321 39.3138 107.514 39.1595C107.707 39.0438 107.977 38.9281 108.209 38.8509C108.479 38.7738 108.749 38.7738 109.019 38.7738C109.597 38.7738 110.06 38.8895 110.407 39.0824C110.754 39.2752 111.024 39.6224 111.179 40.0852L112.49 43.7109C112.567 43.9424 112.683 44.0581 112.799 44.0581C112.914 44.0581 113.03 43.9424 113.107 43.7109L114.419 40.0852C114.573 39.6224 114.843 39.2752 115.19 39.0824C115.537 38.8895 116 38.7738 116.579 38.7738C116.849 38.7738 117.119 38.8124 117.389 38.8509C117.659 38.9281 117.89 39.0052 118.083 39.1595C118.276 39.2752 118.469 39.4681 118.584 39.6609C118.7 39.8538 118.777 40.0852 118.777 40.3552V47.2209H115.691L115.846 42.7081C115.846 42.6309 115.846 42.5538 115.807 42.5538C115.769 42.5152 115.769 42.5152 115.73 42.5152C115.653 42.5152 115.614 42.5924 115.576 42.7466L114.264 46.5266ZM123.213 43.9809C123.174 43.9809 123.097 43.9809 122.981 44.0195C122.904 44.0195 122.827 44.0581 122.75 44.1352C122.711 44.1738 122.673 44.2509 122.634 44.3281C122.634 44.4052 122.596 44.4824 122.596 44.5595C122.596 44.6367 122.596 44.6752 122.634 44.7524C122.634 44.8295 122.673 44.8681 122.75 44.9066C122.789 44.9452 122.866 44.9838 122.943 45.0224C123.02 45.0609 123.097 45.0609 123.174 45.0609H124.794C124.871 45.0609 124.949 45.0609 125.064 45.0224C125.141 45.0224 125.219 44.9838 125.257 44.9452C125.334 44.9066 125.373 44.8295 125.373 44.7524C125.373 44.6752 125.411 44.5981 125.411 44.5209V44.0195H123.213V43.9809ZM125.643 38.8895C126.144 38.8895 126.569 38.9666 126.916 39.1209C127.263 39.2752 127.533 39.4295 127.687 39.6224C127.841 39.7766 127.996 39.9695 128.111 40.1624C128.227 40.3552 128.304 40.5866 128.343 40.7795C128.381 40.9724 128.42 41.2038 128.459 41.3966C128.497 41.5895 128.497 41.7824 128.497 41.9366V45.4466C128.497 45.6781 128.459 45.9095 128.42 46.1409C128.381 46.3724 128.266 46.6038 128.073 46.7966C127.88 46.9895 127.649 47.1438 127.379 47.1824C127.109 47.2209 126.877 47.2595 126.646 47.2595H121.747C121.477 47.2595 121.207 47.2209 120.937 47.1824C120.667 47.1438 120.436 47.0281 120.204 46.7966C120.05 46.6424 119.934 46.4881 119.819 46.2952C119.741 46.1024 119.664 45.8709 119.626 45.6781C119.587 45.4466 119.549 45.2538 119.549 45.0224C119.549 44.8295 119.549 44.6366 119.549 44.4438C119.549 44.2509 119.549 44.0966 119.587 43.9038C119.587 43.7109 119.626 43.5181 119.664 43.3252C119.703 43.1324 119.78 42.9395 119.896 42.7852C119.973 42.6309 120.127 42.4766 120.281 42.3609C120.513 42.1681 120.744 42.0909 121.014 42.0524C121.284 42.0138 121.516 42.0138 121.747 42.0138H125.411V41.8981C125.411 41.8209 125.411 41.7438 125.373 41.6281C125.373 41.5124 125.296 41.4352 125.257 41.3195C125.141 41.1652 124.987 41.0495 124.833 41.0495C124.64 41.0109 124.486 41.0109 124.331 41.0109H120.127V38.8895H125.643ZM131.776 47.2595V41.1266H128.651V38.8895H137.986V41.0881H134.861V47.2209H131.776V47.2595ZM142.884 45.0224C143.231 45.0224 143.463 44.9452 143.656 44.7909C143.849 44.6366 143.964 44.5209 144.041 44.3666C144.119 44.2124 144.196 44.0195 144.196 43.7881C144.234 43.5567 144.234 43.3252 144.234 43.0552C144.234 42.8238 144.234 42.5924 144.196 42.3995C144.157 42.2066 144.157 42.0138 144.08 41.8595C144.003 41.7052 143.926 41.5509 143.81 41.4738C143.694 41.3967 143.579 41.3195 143.501 41.2424C143.386 41.2038 143.27 41.1652 143.193 41.1652C143.077 41.1652 143.039 41.1652 142.961 41.1652H141.881C141.843 41.1652 141.804 41.1652 141.766 41.2038C141.727 41.2424 141.65 41.2424 141.65 41.2809C141.573 41.3581 141.534 41.4352 141.534 41.5509V45.0224H142.884ZM141.534 49.9209H138.449V40.4709C138.449 40.2395 138.487 40.0081 138.564 39.7766C138.641 39.5452 138.796 39.3524 139.027 39.1595C139.22 39.0052 139.413 38.9281 139.606 38.8895C139.799 38.8509 139.991 38.8509 140.223 38.8509H144.08C144.234 38.8509 144.389 38.8509 144.581 38.8895C144.774 38.8895 144.967 38.9281 145.199 39.0052C145.43 39.0438 145.661 39.1595 145.854 39.2752C146.086 39.3909 146.279 39.5452 146.471 39.7381C146.664 39.9695 146.857 40.2009 146.973 40.4709C147.089 40.7409 147.166 41.0109 147.243 41.2809C147.281 41.5509 147.32 41.8209 147.359 42.0909C147.397 42.3609 147.397 42.5924 147.397 42.7852C147.397 42.9781 147.397 43.2095 147.397 43.4795C147.397 43.7495 147.359 44.0581 147.32 44.3666C147.281 44.6752 147.204 44.9838 147.127 45.2924C147.05 45.6009 146.896 45.8709 146.741 46.1024C146.549 46.3724 146.356 46.6038 146.086 46.7581C145.854 46.9124 145.584 47.0281 145.314 47.1052C145.044 47.1824 144.813 47.2209 144.543 47.2595C144.273 47.2981 144.041 47.2981 143.849 47.2981H141.573V49.9209H141.534ZM151.601 43.9809C151.563 43.9809 151.486 43.9809 151.37 44.0195C151.293 44.0195 151.216 44.0581 151.139 44.1352C151.1 44.1738 151.061 44.2509 151.023 44.3281C151.023 44.4052 150.984 44.4824 150.984 44.5595C150.984 44.6367 150.984 44.6752 151.023 44.7524C151.023 44.8295 151.061 44.8681 151.139 44.9066C151.177 44.9452 151.254 44.9838 151.331 45.0224C151.409 45.0609 151.486 45.0609 151.563 45.0609H153.183C153.26 45.0609 153.337 45.0609 153.453 45.0224C153.53 45.0224 153.607 44.9838 153.646 44.9452C153.723 44.9066 153.761 44.8295 153.761 44.7524C153.761 44.6752 153.8 44.5981 153.8 44.5209V44.0195H151.601V43.9809ZM154.031 38.8895C154.533 38.8895 154.957 38.9666 155.304 39.1209C155.651 39.2752 155.921 39.4295 156.076 39.6224C156.23 39.7766 156.384 39.9695 156.5 40.1624C156.616 40.3552 156.693 40.5866 156.731 40.7795C156.77 40.9724 156.809 41.2038 156.847 41.3966C156.847 41.5895 156.886 41.7824 156.886 41.9366V45.4466C156.886 45.6781 156.847 45.9095 156.809 46.1409C156.77 46.3724 156.654 46.6038 156.461 46.7966C156.269 46.9895 156.037 47.1438 155.767 47.1824C155.497 47.2209 155.266 47.2595 155.034 47.2595H150.136C149.866 47.2595 149.596 47.2209 149.326 47.1824C149.056 47.1438 148.824 47.0281 148.593 46.7966C148.439 46.6424 148.323 46.4881 148.207 46.2952C148.13 46.1024 148.053 45.8709 148.014 45.6781C147.976 45.4466 147.937 45.2538 147.937 45.0224C147.937 44.8295 147.937 44.6366 147.937 44.4438C147.937 44.2509 147.937 44.0966 147.976 43.9038C147.976 43.7109 148.014 43.5181 148.053 43.3252C148.091 43.1324 148.169 42.9395 148.284 42.7852C148.361 42.6309 148.516 42.4766 148.67 42.3609C148.901 42.1681 149.133 42.0909 149.403 42.0524C149.673 42.0138 149.904 42.0138 150.136 42.0138H153.8V41.8981C153.8 41.8209 153.8 41.7438 153.761 41.6281C153.761 41.5124 153.684 41.4352 153.646 41.3195C153.53 41.1652 153.376 41.0495 153.221 41.0495C153.029 41.0109 152.874 41.0109 152.72 41.0109H148.516V38.8895H154.031Z" fill="#C56532"/>
<path fill-rule="evenodd" clip-rule="evenodd" d="M160.936 47.2595C160.743 47.2595 160.55 47.2595 160.357 47.221C160.126 47.1824 159.933 47.1438 159.702 47.1052C159.47 47.0281 159.239 46.951 159.007 46.7967C158.776 46.681 158.583 46.4881 158.39 46.2567C158.082 45.871 157.85 45.4467 157.773 44.9067C157.696 44.4052 157.657 43.8267 157.657 43.171C157.657 42.8624 157.657 42.5538 157.696 42.2452C157.696 41.9367 157.734 41.6281 157.812 41.3581C157.889 41.0495 157.966 40.7795 158.082 40.5095C158.197 40.2395 158.39 40.0081 158.583 39.7767C158.892 39.4295 159.277 39.1981 159.702 39.0824C160.126 38.9667 160.589 38.8895 161.09 38.8895H165.564V41.011H162.517C162.247 41.011 162.016 41.0495 161.862 41.0881C161.669 41.1267 161.514 41.2038 161.399 41.3195C161.283 41.3967 161.167 41.5124 161.09 41.6281C161.013 41.7438 160.974 41.8595 160.936 42.0138C160.897 42.1681 160.859 42.361 160.82 42.5152C160.782 42.7081 160.782 42.901 160.782 43.0938C160.782 43.5952 160.82 43.9038 160.859 44.1352C160.936 44.3281 160.974 44.4824 161.013 44.5595C161.09 44.7138 161.244 44.8295 161.36 44.9067C161.514 44.9838 161.63 45.0224 161.784 45.061C161.939 45.0995 162.093 45.0995 162.247 45.0995C162.402 45.0995 162.556 45.0995 162.672 45.0995H165.719V47.221H160.936V47.2595ZM176.557 38.8895H179.643V47.221H176.557V38.8895ZM169.614 44.3281C169.614 44.4438 169.614 44.521 169.653 44.6367C169.692 44.7524 169.73 44.8295 169.769 44.8681C169.884 44.9838 170.039 45.0224 170.27 45.0224H171.543C171.697 45.0224 171.813 45.0224 171.929 45.0224C172.044 45.0224 172.122 44.9838 172.16 44.9452C172.276 44.8681 172.314 44.791 172.353 44.6752C172.353 44.5595 172.392 44.4824 172.392 44.4052C172.392 44.3281 172.392 44.251 172.392 44.1352C172.392 44.0195 172.353 43.981 172.237 43.9038C172.199 43.9038 172.16 43.8652 172.083 43.8267C172.006 43.7881 171.813 43.7881 171.582 43.7881H169.653V44.3281H169.614ZM169.614 38.8895V41.6667H173.394C173.819 41.6667 174.166 41.7438 174.436 41.8981C174.706 42.0524 174.899 42.2067 174.976 42.361C175.13 42.5538 175.246 42.8238 175.362 43.171C175.477 43.5181 175.516 44.0195 175.516 44.6367C175.516 44.791 175.516 44.9452 175.516 45.1381C175.516 45.331 175.477 45.4852 175.439 45.6781C175.4 45.871 175.323 46.0252 175.246 46.2181C175.169 46.411 175.053 46.5652 174.899 46.7195C174.667 46.951 174.436 47.0667 174.204 47.1438C173.973 47.1824 173.703 47.221 173.433 47.221H168.264C168.072 47.221 167.879 47.1824 167.647 47.1438C167.416 47.1052 167.223 46.9895 167.03 46.7967C166.953 46.7195 166.876 46.6038 166.76 46.411C166.644 46.2181 166.606 45.9481 166.606 45.5624V38.8895H169.614Z" fill="#C56532"/>
<path d="M44.554 63.65C42.879 63.65 41.204 63.488 39.5289 63.1911C32.2074 61.8683 25.8585 57.7649 21.6168 51.6639C17.3752 45.5629 15.7812 38.166 17.105 30.8502C18.4289 23.5344 22.5354 17.1904 28.6412 12.9521C33.8824 9.33464 39.9882 7.6339 46.3371 8.06584C46.6073 8.09283 46.8505 8.3088 46.8775 8.57876C46.9045 8.84871 46.7154 9.11867 46.4452 9.19965C44.0407 9.84755 41.7713 10.9004 39.718 12.3312C29.7219 19.2421 27.2363 32.9829 34.1526 42.9713C41.0689 52.9597 54.8204 55.4433 64.8166 48.5324C66.8699 47.1016 68.653 45.3739 70.1119 43.3492C70.274 43.1333 70.5712 43.0523 70.8413 43.1603C71.0845 43.2952 71.2196 43.5652 71.1385 43.8352C69.3014 49.9092 65.5731 55.0384 60.3318 58.6558C55.6309 61.9493 50.1465 63.65 44.554 63.65ZM43.0141 9.19965C38.097 9.44262 33.3961 11.0624 29.2896 13.8969C23.427 17.9463 19.5095 24.0473 18.2127 31.0662C16.9429 38.0851 18.4829 45.1579 22.5354 51.016C26.5879 56.8741 32.6937 60.7884 39.718 62.0842C46.7424 63.353 53.8208 61.8143 59.6834 57.7649C63.79 54.9034 66.9509 51.097 68.9231 46.5887C67.8695 47.6685 66.7348 48.6404 65.465 49.5042C60.3859 53.0407 54.226 54.3635 48.1203 53.2567C42.0145 52.1498 36.7192 48.7484 33.207 43.6462C25.9395 33.1179 28.5601 18.6751 39.0696 11.3863C40.3124 10.5224 41.6362 9.79356 43.0141 9.19965Z" fill="#C56532"/>
<path d="M46.31 18.3235C45.9858 18.3235 45.7427 18.0536 45.7427 17.7566V8.65907C45.7427 8.33512 46.0128 8.09216 46.31 8.09216C46.6072 8.09216 46.8774 8.36212 46.8774 8.65907V17.7566C46.8774 18.0806 46.6072 18.3235 46.31 18.3235Z" fill="#C56532"/>
<path d="M45.0403 60.9504C36.9082 60.9504 28.9383 57.117 23.9672 49.9362C18.4017 41.8914 17.8614 31.5791 22.5893 23.0214C22.7514 22.7515 23.1027 22.6435 23.3728 22.8055C23.643 22.9674 23.7511 23.3184 23.589 23.5883C19.0772 31.768 19.5905 41.6215 24.8858 49.2883C28.6141 54.6604 34.1795 58.2508 40.6095 59.4116C47.0395 60.5725 53.5235 59.1687 58.8998 55.4703C59.17 55.2813 59.5212 55.3623 59.7103 55.6053C59.8995 55.8752 59.8184 56.2262 59.5753 56.4151C55.1445 59.4656 50.0654 60.9504 45.0403 60.9504Z" fill="#C56532"/>
<path d="M77.4875 47.8845C77.4335 47.8845 77.3524 47.8845 77.2984 47.8575C77.0012 47.7495 76.8391 47.4256 76.9472 47.1286C78.217 43.4842 78.8654 39.6778 78.8654 35.8174C78.8654 31.957 78.217 28.1506 76.9472 24.5062C76.8391 24.2093 77.0012 23.8853 77.2984 23.7773C77.5956 23.6694 77.9198 23.8313 78.0278 24.1283C79.3517 27.8807 80.0001 31.8221 80.0001 35.8174C80.0001 39.8128 79.3246 43.7272 78.0278 47.5066C77.9468 47.7495 77.7307 47.8845 77.4875 47.8845Z" fill="#C56532"/>
<path d="M11.5126 47.8845C11.2694 47.8845 11.0533 47.7495 10.9722 47.5066C9.6484 43.7542 9 39.8128 9 35.8174C9 31.8221 9.67542 27.9077 10.9722 24.1283C11.0803 23.8313 11.4045 23.6694 11.7017 23.7773C11.9989 23.8853 12.161 24.2093 12.0529 24.5062C10.7831 28.1506 10.1347 31.957 10.1347 35.8174C10.1347 39.6778 10.7831 43.4842 12.0529 47.1286C12.161 47.4256 11.9989 47.7495 11.7017 47.8575C11.6206 47.8845 11.5666 47.8845 11.5126 47.8845Z" fill="#C56532"/>
<path fill-rule="evenodd" clip-rule="evenodd" d="M68.9231 28.5286L69.3013 29.7434L70.5711 29.7164L69.5445 30.4723L69.9497 31.6871L68.9231 30.9042L67.8964 31.6871L68.3017 30.4723L67.248 29.7164L68.5448 29.7434L68.9231 28.5286Z" fill="#C56532"/>
<path fill-rule="evenodd" clip-rule="evenodd" d="M46.3101 15.1387L47.5258 19.0531L51.6054 18.9991L48.2553 21.3477L49.5791 25.2351L46.3101 22.7785L43.014 25.2351L44.3379 21.3477L40.9878 18.9991L45.0673 19.0531L46.3101 15.1387Z" fill="#C56532"/>
<path fill-rule="evenodd" clip-rule="evenodd" d="M61.3585 35.8174L62.2231 38.598L65.1138 38.544L62.7634 40.2447L63.682 42.9713L61.3585 41.2436L59.0351 42.9713L59.9536 40.2447L57.5762 38.544L60.494 38.598L61.3585 35.8174Z" fill="#C56532"/>
<path fill-rule="evenodd" clip-rule="evenodd" d="M44.9865 34.6027L45.6619 36.7893L47.9583 36.7623L46.0942 38.0581L46.8236 40.2178L44.9865 38.868L43.1494 40.2178L43.8788 38.0581L42.0146 36.7623L44.3111 36.7893L44.9865 34.6027Z" fill="#C56532"/>
</svg>
