<svg width="16" height="16" viewBox="0 0 16 16" fill="none" xmlns="http://www.w3.org/2000/svg">
<g clip-path="url(#clip0)">
<path fill-rule="evenodd" clip-rule="evenodd" d="M0.195262 0.195262C0.455612 -0.0650874 0.877722 -0.0650874 1.13807 0.195262L1.46198 0.51917C1.7941 0.851295 1.99874 1.28972 2.04002 1.7576L2.12024 2.66667H14.6667C14.8607 2.66667 15.0452 2.75124 15.1718 2.8983C15.2985 3.04535 15.3547 3.2403 15.326 3.43223L14.4963 8.96335C14.3494 9.94239 13.5084 10.6667 12.5184 10.6667H2.82612L2.89011 11.3919C2.92048 11.7361 3.20872 12 3.5542 12H12C13.1046 12 14 12.8954 14 14C14 15.1046 13.1046 16 12 16C10.8954 16 10 15.1046 10 14C10 13.7662 10.0401 13.5419 10.1138 13.3333H5.21953C5.29323 13.5419 5.33333 13.7662 5.33333 14C5.33333 15.1046 4.4379 16 3.33333 16C2.22876 16 1.33333 15.1046 1.33333 14C1.33333 13.4262 1.575 12.9088 1.96212 12.544C1.74038 12.2529 1.59626 11.8981 1.56194 11.5091L0.711852 1.87479C0.698091 1.71883 0.629878 1.57269 0.51917 1.46198L0.195262 1.13807C-0.0650874 0.877722 -0.0650874 0.455612 0.195262 0.195262ZM12 13.3333C11.6318 13.3333 11.3333 13.6318 11.3333 14C11.3333 14.3682 11.6318 14.6667 12 14.6667C12.3682 14.6667 12.6667 14.3682 12.6667 14C12.6667 13.6318 12.3682 13.3333 12 13.3333ZM2.70847 9.33333H12.5184C12.8484 9.33333 13.1288 9.09191 13.1777 8.76556L13.8925 4H2.23788L2.70847 9.33333ZM3.33333 13.3333C2.96514 13.3333 2.66667 13.6318 2.66667 14C2.66667 14.3682 2.96514 14.6667 3.33333 14.6667C3.70152 14.6667 4 14.3682 4 14C4 13.6318 3.70152 13.3333 3.33333 13.3333Z" fill="white"/>
</g>
<defs>
<clipPath id="clip0">
<rect width="16" height="16" fill="white"/>
</clipPath>
</defs>
</svg>
